<svg xmlns="http://www.w3.org/2000/svg" viewBox="0 0 16 16"><path d="M0 8c0-.718.088-1.414.253-2.078A2.38 2.38 0 0 0 2.457 4.68a2.57 2.57 0 0 0-.064-2.6A7.93 7.93 0 0 1 5.861 0C6.258.807 7.067 1.36 8 1.36c.933 0 1.742-.553 2.14-1.36a7.93 7.93 0 0 1 3.467 2.08 2.57 2.57 0 0 0-.064 2.6 2.38 2.38 0 0 0 2.204 1.242C15.912 6.586 16 7.282 16 8c0 .718-.088 1.414-.253 2.078a2.38 2.38 0 0 0-2.204 1.242 2.57 2.57 0 0 0 .064 2.6A7.93 7.93 0 0 1 10.139 16c-.397-.807-1.206-1.36-2.139-1.36-.933 0-1.742.553-2.14 1.36a7.93 7.93 0 0 1-3.467-2.08 2.57 2.57 0 0 0 .064-2.6 2.38 2.38 0 0 0-2.204-1.242A8.61 8.61 0 0 1 0 8Zm3.843 2.49c.504.906.649 1.947.452 2.925.326.24.673.45 1.037.623A3.914 3.914 0 0 1 8 12.98c1.009 0 1.95.391 2.668 1.058a6.336 6.336 0 0 0 1.037-.623 4.279 4.279 0 0 1 .452-2.925 4.028 4.028 0 0 1 2.215-1.868 7.01 7.01 0 0 0 0-1.244 4.028 4.028 0 0 1-2.215-1.868 4.278 4.278 0 0 1-.452-2.925 6.34 6.34 0 0 0-1.037-.623A3.914 3.914 0 0 1 8 3.02a3.914 3.914 0 0 1-2.668-1.058 6.339 6.339 0 0 0-1.037.623 4.279 4.279 0 0 1-.452 2.925 4.028 4.028 0 0 1-2.215 1.868 6.995 6.995 0 0 0 0 1.244 4.028 4.028 0 0 1 2.215 1.868Zm4.157 0c-1.326 0-2.4-1.115-2.4-2.49 0-1.375 1.074-2.49 2.4-2.49 1.326 0 2.4 1.115 2.4 2.49 0 1.375-1.074 2.49-2.4 2.49Zm0-1.66c.442 0 .8-.372.8-.83 0-.458-.358-.83-.8-.83-.442 0-.8.372-.8.83 0 .458.358.83.8.83Z" fill-rule="nonzero"/></svg>